HIERARCHY
ROOT RootJoint
{
    OFFSET   0.000000   0.000000   0.000000
    CHANNELS 6 Xposition Yposition Zposition Xrotation Yrotation Zrotation
    JOINT pelvis_lowerback
    {
        OFFSET   0.000000   0.093605   0.000000
        CHANNELS 3 Xrotation Yrotation Zrotation
        JOINT lowerback_torso
        {
            OFFSET   0.000000   0.100000   0.000000
            CHANNELS 3 Xrotation Yrotation Zrotation
            JOINT torso_head
            {
                OFFSET   0.000000   0.282350   0.000000
                CHANNELS 3 Xrotation Yrotation Zrotation
                End Site
                {
                    OFFSET   0.000000   0.192650   0.000000
                }
            }
            JOINT rTorso_Clavicle
            {
                OFFSET  -0.001000   0.157500   0.000000
                CHANNELS 3 Xrotation Yrotation Zrotation
                JOINT rShoulder
                {
                    OFFSET  -0.117647   0.000000   0.000000
                    CHANNELS 3 Xrotation Yrotation Zrotation
                    JOINT rElbow
                    {
                        OFFSET  -0.245000   0.000000   0.000000
                        CHANNELS 3 Xrotation Yrotation Zrotation
                        JOINT rWrist
                        {
                            OFFSET  -0.240000   0.000000   0.000000
                            CHANNELS 3 Xrotation Yrotation Zrotation
                            End Site
                            {
                                OFFSET  -0.116353  -0.002500   0.000000
                            }
                        }
                    }
                }
            }
            JOINT lTorso_Clavicle
            {
                OFFSET   0.001000   0.157500   0.000000
                CHANNELS 3 Xrotation Yrotation Zrotation
                JOINT lShoulder
                {
                    OFFSET   0.117647   0.000000   0.000000
                    CHANNELS 3 Xrotation Yrotation Zrotation
                    JOINT lElbow
                    {
                        OFFSET   0.245000   0.000000   0.000000
                        CHANNELS 3 Xrotation Yrotation Zrotation
                        JOINT lWrist
                        {
                            OFFSET   0.240000   0.000000   0.000000
                            CHANNELS 3 Xrotation Yrotation Zrotation
                            End Site
                            {
                                OFFSET   0.116353  -0.002500   0.000000
                            }
                        }
                    }
                }
            }
        }
    }
    JOINT rHip
    {
        OFFSET  -0.100000  -0.051395   0.000000
        CHANNELS 3 Xrotation Yrotation Zrotation
        JOINT rKnee
        {
            OFFSET   0.000000  -0.410000   0.000000
            CHANNELS 3 Xrotation Yrotation Zrotation
            JOINT rAnkle
            {
                OFFSET   0.000000  -0.390000   0.000000
                CHANNELS 3 Xrotation Yrotation Zrotation
                JOINT rToeJoint
                {
                    OFFSET   0.000000  -0.050000   0.130000
                    CHANNELS 3 Xrotation Yrotation Zrotation
                    End Site
                    {
                        OFFSET  -0.010000   0.002000   0.060000
                    }
                }
            }
        }
    }
    JOINT lHip
    {
        OFFSET   0.100000  -0.051395   0.000000
        CHANNELS 3 Xrotation Yrotation Zrotation
        JOINT lKnee
        {
            OFFSET   0.000000  -0.410000   0.000000
            CHANNELS 3 Xrotation Yrotation Zrotation
            JOINT lAnkle
            {
                OFFSET   0.000000  -0.390000   0.000000
                CHANNELS 3 Xrotation Yrotation Zrotation
                JOINT lToeJoint
                {
                    OFFSET   0.000000  -0.050000   0.130000
                    CHANNELS 3 Xrotation Yrotation Zrotation
                    End Site
                    {
                        OFFSET   0.010000   0.002000   0.060000
                    }
                }
            }
        }
    }
}
MOTION
Frames: 10
Frame Time:   0.008333
 -2.478815   0.904242   4.288046 -165.024459 -47.200612 -170.898808   6.509666  -0.298738  -0.444572   5.446601  -2.205371   1.107897  -1.377870  -0.812474   0.479705   3.124068   7.485655  10.728618  12.756804  17.184274  48.414010  -0.000045  15.596732   0.000211  13.840095   3.058782 -21.440255   3.349164  -7.768423 -11.424694  13.269858 -21.987753 -48.538907   0.000045 -22.217833   0.000133  13.157227  -4.974550  24.851522   8.575850  -9.008121  -6.293164  14.236948  -0.000097  -0.000141 -10.327741  -8.923026   2.384840  -1.533663  -0.000166  -0.000275   5.350629   9.402946  13.114258  15.446193  -0.000023  -0.000028 -10.386341  12.855998   2.087854   2.018295  -0.000000   0.000000
 -2.479341   0.904292   4.288103 -164.977079 -47.314495 -170.820252   6.492684  -0.277320  -0.440267   5.429806  -2.200031   1.107229  -1.379661  -0.811677   0.462916   3.124313   7.478360  10.738569  12.766279  17.140543  48.452236  -0.000076  15.489235   0.000245  13.848372   3.070558 -21.423912   3.336998  -7.758630 -11.436934  13.244295 -21.947671 -48.578181   0.000066 -22.166323   0.000210  13.157132  -4.973141  24.855952   8.644616  -9.029782  -6.344933  14.203031  -0.000095  -0.000141 -10.299493  -8.927271   2.382003  -1.611254  -0.000165  -0.000288   5.389521   9.341242  13.056270  15.412723  -0.000029  -0.000036 -10.389047  12.804668   2.100971   2.015329  -0.000000   0.000000
 -2.479870   0.904340   4.288162 -164.929279 -47.431879 -170.738403   6.475004  -0.256272  -0.433918   5.415097  -2.195254   1.105104  -1.382182  -0.810470   0.446559   3.128671   7.469060  10.748985  12.778384  17.097149  48.489212  -0.000104  15.386270   0.000275  13.851539   3.068849 -21.400746   3.328150  -7.748762 -11.454127  13.221159 -21.910055 -48.619328   0.000077 -22.116888   0.000267  13.152294  -4.962157  24.855410   8.711773  -9.049818  -6.399487  14.173078  -0.000092  -0.000139 -10.274631  -8.932487   2.378796  -1.688526  -0.000165  -0.000301   5.427173   9.278801  12.996112  15.379317  -0.000033  -0.000043 -10.390957  12.750066   2.111630   2.011794  -0.000001   0.000000
 -2.480390   0.904385   4.288222 -164.882545 -47.547991 -170.657723   6.458140  -0.235173  -0.425891   5.402438  -2.189926   1.103522  -1.384952  -0.809179   0.431528   3.134560   7.459114  10.759457  12.791003  17.055692  48.524599  -0.000126  15.289434   0.000296  13.852830   3.062540 -21.374027   3.322125  -7.738347 -11.473301  13.200465 -21.874728 -48.660611   0.000081 -22.070405   0.000304  13.145974  -4.949659  24.849759   8.775892  -9.068593  -6.453408  14.146858  -0.000088  -0.000134 -10.251125  -8.938078   2.375400  -1.765879  -0.000164  -0.000311   5.462675   9.217517  12.937144  15.347772  -0.000036  -0.000048 -10.393092  12.695294   2.120978   2.008092  -0.000001   0.000000
 -2.480895   0.904427   4.288280 -164.837815 -47.660698 -170.579924   6.442498  -0.214083  -0.416761   5.391638  -2.183776   1.102864  -1.387671  -0.807885   0.417750   3.140725   7.449394  10.769966  12.803192  17.016760  48.558301  -0.000143  15.198844   0.000309  13.853611   3.055231 -21.345946   3.318329  -7.727518 -11.492897  13.182095 -21.841343 -48.700870   0.000081 -22.026701   0.000324  13.138906  -4.936911  24.840571   8.836543  -9.086311  -6.505626  14.123531  -0.000082  -0.000127 -10.228589  -8.943794   2.371940  -1.842250  -0.000162  -0.000317   5.495893   9.158292  12.880295  15.318183  -0.000038  -0.000051 -10.395535  12.641756   2.129396   2.004374  -0.000001   0.000000
 -2.481382   0.904468   4.288336 -164.795663 -47.769043 -170.505789   6.428170  -0.193145  -0.406918   5.382413  -2.176846   1.103126  -1.390219  -0.806627   0.405072   3.146590   7.440290  10.780457  12.814555  16.980511  48.590286  -0.000155  15.114311   0.000315  13.854425   3.048343 -21.317637   3.316236  -7.716463 -11.512079  13.165822 -21.809705 -48.739455   0.000079 -21.985595   0.000333  13.131317  -4.923884  24.829150   8.893612  -9.103080  -6.555737  14.102415  -0.000076  -0.000119 -10.206995  -8.949530   2.368486  -1.916741  -0.000159  -0.000317   5.526808   9.101544  12.825869  15.290401  -0.000038  -0.000052 -10.398236  12.590101   2.137054   2.000710  -0.000002   0.000000
 -2.481850   0.904505   4.288389 -164.756397 -47.872611 -170.435677   6.415127  -0.172518  -0.396611   5.374501  -2.169285   1.104216  -1.392557  -0.805421   0.393368   3.151915   7.431945  10.790836  12.824960  16.946897  48.620543  -0.000161  15.035530   0.000315  13.855477   3.042410 -21.289707   3.315417  -7.705360 -11.530418  13.151391 -21.779706 -48.776046   0.000075 -21.946943   0.000332  13.123349  -4.910513  24.816420   8.947133  -9.118970  -6.603578  14.083040  -0.000070  -0.000111 -10.186391  -8.955225   2.365086  -1.988783  -0.000154  -0.000312   5.555478   9.047454  12.773961  15.264246  -0.000038  -0.000052 -10.401140  12.540637   2.144060   1.997144  -0.000002   0.000000
 -2.482343   0.904529   4.288465 -164.712981 -47.981087 -170.348375   6.394451  -0.157287  -0.391237   5.380143  -2.163336   1.100721  -1.394124  -0.798797   0.369868   3.153577   7.426500  10.810089  12.829138  16.912353  48.647882  -0.000190  14.920252   0.000342  13.858823   3.043155 -21.284840   3.304397  -7.698288 -11.549361  13.125410 -21.739814 -48.826599   0.000081 -21.882994   0.000382  13.118659  -4.903239  24.812564   8.999016  -9.128596  -6.671831  14.072011  -0.000062  -0.000098 -10.177448  -8.946546   2.380182  -2.055145  -0.000141  -0.000319   5.589560   8.980907  12.704499  15.237581  -0.000038  -0.000050 -10.403326  12.497423   2.147879   1.992167  -0.000002   0.000000
 -2.482838   0.904548   4.288551 -164.668488 -48.089418 -170.259047   6.375355  -0.142938  -0.384300   5.387733  -2.157917   1.097538  -1.395549  -0.792335   0.346939   3.156822   7.420567  10.830429  12.834369  16.878900  48.674121  -0.000215  14.810817   0.000361  13.857414   3.031586 -21.277761   3.294809  -7.691506 -11.569515  13.101344 -21.702315 -48.875296   0.000083 -21.822353   0.000412  13.110292  -4.888543  24.807460   9.049567  -9.135894  -6.742020  14.064489  -0.000054  -0.000085 -10.170939  -8.937707   2.394906  -2.120613  -0.000131  -0.000325   5.622058   8.915323  12.634027  15.214369  -0.000037  -0.000048 -10.406705  12.452649   2.149859   1.986702  -0.000003   0.000000
 -2.483326   0.904566   4.288643 -164.625294 -48.194568 -170.172126   6.357808  -0.128736  -0.375658   5.396134  -2.152278   1.095954  -1.396869  -0.786210   0.325648   3.160801   7.414455  10.850771  12.839792  16.847345  48.699630  -0.000234  14.708315   0.000371  13.854905   3.017401 -21.267966   3.286957  -7.684468 -11.589570  13.079459 -21.667012 -48.921795   0.000083 -21.765484   0.000426  13.101250  -4.872390  24.800573   9.097639  -9.142575  -6.810938  14.058905  -0.000047  -0.000073 -10.164262  -8.929886   2.408399  -2.185897  -0.000123  -0.000328   5.652640   8.852316  12.565144  15.193532  -0.000036  -0.000046 -10.410876  12.408362   2.150450   2.070630   0.000016  -0.000001
